# xmcd
#
# Track frame offsets:
#	150
#	13173
#	26550
#	37446
#	53965
#	73129
#	87366
#	101675
#	113221
#	123411
#	137903
#	153427
#	167292
#	180086
#	193450
#	205471
#	221594
#
# Disc length: 3092 seconds
#
# Revision: 0
# Processed by: cddbd v1.5.2PL0 Copyright (c) Steve Scherf et al.
# Submitted via: audiograbber 1.83.01
#
DISCID=fd0c1211
DTITLE=CKC051 - Country Karaoke Classics CKC051
DYEAR=2008
DGENRE=Country
TTITLE0=Charley Pride - Mountain Of Love
TTITLE1=Charley Pride - Crystal Chandeliers
TTITLE2=Charley Pride - Is Anybody Goin' To San Antone
TTITLE3=Charley Pride - Roll On Mississippi
TTITLE4=Charley Pride - Where Do I Put Her Memory
TTITLE5=Charley Pride - You Win Again
TTITLE6=Charley Pride - I'm So Afraid Of Losing You Again
TTITLE7=Charley Pride - I'm Just Me
TTITLE8=Charley Pride - Why Baby Why
TTITLE9=Charley Pride - I Can't Believe That You've Stopped
TTITLE10=Charley Pride - You're So Good When You're Bad
TTITLE11=Charley Pride - All I Have To Offer You Is Me
TTITLE12=Charley Pride - I'd Rather Love You
TTITLE13=Charley Pride - Night Games
TTITLE14=Charley Pride - Wonder If I Could Live There Anymore
TTITLE15=Charley Pride - Kaw-Liga
TTITLE16=Charley Pride - Kiss An Angel Good Morning
EXTD=
EXTT0=
EXTT1=
EXTT2=
EXTT3=
EXTT4=
EXTT5=
EXTT6=
EXTT7=
EXTT8=
EXTT9=
EXTT10=
EXTT11=
EXTT12=
EXTT13=
EXTT14=
EXTT15=
EXTT16=
PLAYORDER=
